<mxfile modified="2023-02-07T01:22:17.540Z" host="app.diagrams.net" agent="5.0 (Windows)" etag="KUn-WsMS-loFcPUJq9Yi" version="20.8.17" type="github">
  <diagram id="Ht1M8jgEwFfnCIfOTk4-" name="Page-1">
    <mxGraphModel dx="616" dy="391" grid="1" gridSize="10" guides="1" tooltips="1" connect="1" arrows="1" fold="1" page="1" pageScale="1" pageWidth="1169" pageHeight="827" math="0" shadow="0">
      <root>
        <mxCell id="0" />
        <mxCell id="1" parent="0" />
        <mxCell id="UEzPUAAOIrF-is8g5C7q-74" value="AWS Cloud" style="points=[[0,0],[0.25,0],[0.5,0],[0.75,0],[1,0],[1,0.25],[1,0.5],[1,0.75],[1,1],[0.75,1],[0.5,1],[0.25,1],[0,1],[0,0.75],[0,0.5],[0,0.25]];outlineConnect=0;gradientColor=none;html=1;whiteSpace=wrap;fontSize=12;fontStyle=0;shape=mxgraph.aws4.group;grIcon=mxgraph.aws4.group_aws_cloud_alt;strokeColor=#232F3E;fillColor=none;verticalAlign=top;align=left;spacingLeft=30;fontColor=#232F3E;dashed=0;labelBackgroundColor=#ffffff;container=1;pointerEvents=0;collapsible=0;recursiveResize=0;" parent="1" vertex="1">
          <mxGeometry x="40" y="51" width="1020" height="689" as="geometry" />
        </mxCell>
        <mxCell id="tH_fZnm6Bj4nooWAQISr-18" value="" style="rounded=1;whiteSpace=wrap;html=1;dashed=1;strokeWidth=2;arcSize=6;" vertex="1" parent="UEzPUAAOIrF-is8g5C7q-74">
          <mxGeometry x="80" y="80" width="650" height="510" as="geometry" />
        </mxCell>
        <mxCell id="tH_fZnm6Bj4nooWAQISr-19" value="" style="rounded=1;whiteSpace=wrap;html=1;dashed=1;strokeWidth=2;arcSize=6;strokeColor=#FFB570;" vertex="1" parent="UEzPUAAOIrF-is8g5C7q-74">
          <mxGeometry x="100" y="229" width="610" height="281" as="geometry" />
        </mxCell>
        <mxCell id="tH_fZnm6Bj4nooWAQISr-5" value="" style="sketch=0;points=[[0,0,0],[0.25,0,0],[0.5,0,0],[0.75,0,0],[1,0,0],[0,1,0],[0.25,1,0],[0.5,1,0],[0.75,1,0],[1,1,0],[0,0.25,0],[0,0.5,0],[0,0.75,0],[1,0.25,0],[1,0.5,0],[1,0.75,0]];outlineConnect=0;fontColor=#232F3E;gradientColor=#945DF2;gradientDirection=north;fillColor=#5A30B5;strokeColor=#ffffff;dashed=0;verticalLabelPosition=bottom;verticalAlign=top;align=center;html=1;fontSize=12;fontStyle=0;aspect=fixed;shape=mxgraph.aws4.resourceIcon;resIcon=mxgraph.aws4.vpc;" vertex="1" parent="UEzPUAAOIrF-is8g5C7q-74">
          <mxGeometry x="364.5" y="29" width="81" height="81" as="geometry" />
        </mxCell>
        <mxCell id="tH_fZnm6Bj4nooWAQISr-9" value="Public subnet" style="points=[[0,0],[0.25,0],[0.5,0],[0.75,0],[1,0],[1,0.25],[1,0.5],[1,0.75],[1,1],[0.75,1],[0.5,1],[0.25,1],[0,1],[0,0.75],[0,0.5],[0,0.25]];outlineConnect=0;gradientColor=none;html=1;whiteSpace=wrap;fontSize=12;fontStyle=0;container=1;pointerEvents=0;collapsible=0;recursiveResize=0;shape=mxgraph.aws4.group;grIcon=mxgraph.aws4.group_security_group;grStroke=0;strokeColor=#248814;fillColor=#E9F3E6;verticalAlign=top;align=left;spacingLeft=30;fontColor=#248814;dashed=0;" vertex="1" parent="UEzPUAAOIrF-is8g5C7q-74">
          <mxGeometry x="150" y="304.5" width="130" height="130" as="geometry" />
        </mxCell>
        <mxCell id="tH_fZnm6Bj4nooWAQISr-16" value="&lt;div&gt;10.0.1.0/24&lt;/div&gt;" style="text;html=1;align=center;verticalAlign=middle;resizable=0;points=[];autosize=1;strokeColor=none;fillColor=none;" vertex="1" parent="tH_fZnm6Bj4nooWAQISr-9">
          <mxGeometry x="25" y="50" width="80" height="30" as="geometry" />
        </mxCell>
        <mxCell id="tH_fZnm6Bj4nooWAQISr-8" value="Private subnet" style="points=[[0,0],[0.25,0],[0.5,0],[0.75,0],[1,0],[1,0.25],[1,0.5],[1,0.75],[1,1],[0.75,1],[0.5,1],[0.25,1],[0,1],[0,0.75],[0,0.5],[0,0.25]];outlineConnect=0;gradientColor=none;html=1;whiteSpace=wrap;fontSize=12;fontStyle=0;container=1;pointerEvents=0;collapsible=0;recursiveResize=0;shape=mxgraph.aws4.group;grIcon=mxgraph.aws4.group_security_group;grStroke=0;strokeColor=#147EBA;fillColor=#E6F2F8;verticalAlign=top;align=left;spacingLeft=30;fontColor=#147EBA;dashed=0;" vertex="1" parent="UEzPUAAOIrF-is8g5C7q-74">
          <mxGeometry x="520" y="304.5" width="130" height="130" as="geometry" />
        </mxCell>
        <mxCell id="tH_fZnm6Bj4nooWAQISr-17" value="&lt;div&gt;10.0.2.0/24&lt;/div&gt;" style="text;html=1;align=center;verticalAlign=middle;resizable=0;points=[];autosize=1;strokeColor=none;fillColor=none;" vertex="1" parent="tH_fZnm6Bj4nooWAQISr-8">
          <mxGeometry x="25" y="50" width="80" height="30" as="geometry" />
        </mxCell>
        <mxCell id="tH_fZnm6Bj4nooWAQISr-12" value="" style="outlineConnect=0;dashed=0;verticalLabelPosition=bottom;verticalAlign=top;align=center;html=1;shape=mxgraph.aws3.internet_gateway;fillColor=#F58536;gradientColor=none;" vertex="1" parent="UEzPUAAOIrF-is8g5C7q-74">
          <mxGeometry x="400" y="479" width="69" height="72" as="geometry" />
        </mxCell>
        <mxCell id="tH_fZnm6Bj4nooWAQISr-11" value="" style="outlineConnect=0;dashed=0;verticalLabelPosition=bottom;verticalAlign=top;align=center;html=1;shape=mxgraph.aws3.elastic_ip;fillColor=#F58534;gradientColor=none;" vertex="1" parent="UEzPUAAOIrF-is8g5C7q-74">
          <mxGeometry x="323.5" y="259" width="76.5" height="21" as="geometry" />
        </mxCell>
        <mxCell id="tH_fZnm6Bj4nooWAQISr-21" value="" style="curved=1;endArrow=classic;html=1;rounded=0;" edge="1" parent="UEzPUAAOIrF-is8g5C7q-74" source="tH_fZnm6Bj4nooWAQISr-9" target="tH_fZnm6Bj4nooWAQISr-10">
          <mxGeometry width="50" height="50" relative="1" as="geometry">
            <mxPoint x="440" y="309" as="sourcePoint" />
            <mxPoint x="375" y="419" as="targetPoint" />
            <Array as="points" />
          </mxGeometry>
        </mxCell>
        <mxCell id="tH_fZnm6Bj4nooWAQISr-22" value="" style="curved=1;endArrow=classic;html=1;rounded=0;startArrow=none;" edge="1" parent="UEzPUAAOIrF-is8g5C7q-74" source="tH_fZnm6Bj4nooWAQISr-10" target="tH_fZnm6Bj4nooWAQISr-12">
          <mxGeometry width="50" height="50" relative="1" as="geometry">
            <mxPoint x="320" y="319.69696969696963" as="sourcePoint" />
            <mxPoint x="416.2413793103449" y="211.0000000000001" as="targetPoint" />
            <Array as="points" />
          </mxGeometry>
        </mxCell>
        <mxCell id="tH_fZnm6Bj4nooWAQISr-10" value="" style="outlineConnect=0;dashed=0;verticalLabelPosition=bottom;verticalAlign=top;align=center;html=1;shape=mxgraph.aws3.vpc_nat_gateway;fillColor=#F58534;gradientColor=none;" vertex="1" parent="UEzPUAAOIrF-is8g5C7q-74">
          <mxGeometry x="331" y="351" width="69" height="72" as="geometry" />
        </mxCell>
        <mxCell id="tH_fZnm6Bj4nooWAQISr-24" value="" style="curved=1;endArrow=classic;html=1;rounded=0;" edge="1" parent="UEzPUAAOIrF-is8g5C7q-74" source="tH_fZnm6Bj4nooWAQISr-8" target="tH_fZnm6Bj4nooWAQISr-12">
          <mxGeometry width="50" height="50" relative="1" as="geometry">
            <mxPoint x="510" y="439" as="sourcePoint" />
            <mxPoint x="560" y="389" as="targetPoint" />
            <Array as="points" />
          </mxGeometry>
        </mxCell>
      </root>
    </mxGraphModel>
  </diagram>
</mxfile>
